Coordinates
version=1
nRows=10
nColumns=40
inDegrees=yes

Units are S.I. units (second, meters, Newtons, ...)
If the header above contains a line with 'inDegrees', this indicates whether rotational values are in degrees (yes) or radians (no).

endheader
time	pelvis_tilt	pelvis_list	pelvis_rotation	pelvis_tx	pelvis_ty	pelvis_tz	hip_flexion_r	hip_adduction_r	hip_rotation_r	knee_angle_r	knee_angle_r_beta	ankle_angle_r	subtalar_angle_r	mtp_angle_r	hip_flexion_l	hip_adduction_l	hip_rotation_l	knee_angle_l	knee_angle_l_beta	ankle_angle_l	subtalar_angle_l	mtp_angle_l	lumbar_extension	lumbar_bending	lumbar_rotation	arm_flex_r	arm_add_r	arm_rot_r	elbow_flex_r	pro_sup_r	wrist_flex_r	wrist_dev_r	arm_flex_l	arm_add_l	arm_rot_l	elbow_flex_l	pro_sup_l	wrist_flex_l	wrist_dev_l
     17.09000000	     22.57092815	    -11.27283129	    178.76845851	      0.37507091	      0.67529233	     -0.60090680	     90.19028026	    -10.01444225	     11.18169333	     88.48605240	      1.54437296	     24.84873295	      0.00000000	      0.00000000	     82.23741225	     -4.79462230	     -9.65471408	     84.18567435	      1.46931720	     27.72125665	      0.00000000	      0.00000000	    -48.65246803	     -7.84957188	     -8.29919118	     58.52149790	    -12.34487085	     45.67152038	      8.98903684	     11.76406928	      0.00000000	      0.00000000	     66.76010639	    -18.04838993	     44.67451474	     15.03730836	     84.77768833	      0.00000000	      0.00000000
     17.09500000	     22.57208938	    -11.32036479	    178.60148277	      0.37459260	      0.67552252	     -0.60115359	     90.17131296	     -9.91690670	     11.15511082	     88.46139590	      1.54394262	     24.83120271	      0.00000000	      0.00000000	     82.18841747	     -4.87535034	     -9.62572320	     84.20848801	      1.46971537	     27.73607913	      0.00000000	      0.00000000	    -48.67266019	     -8.00844657	     -8.23253796	     58.55199949	    -12.33777299	     45.67622973	      8.99773737	     11.76366853	      0.00000000	      0.00000000	     66.71650484	    -18.07194709	     44.67281513	     15.02047588	     84.77680487	      0.00000000	      0.00000000
     17.10000000	     22.61665802	    -11.27682404	    178.59733969	      0.37426097	      0.67581268	     -0.60117642	     90.11420915	     -9.80896680	     11.21892156	     88.40564792	      1.54296963	     24.82069662	      0.00000000	      0.00000000	     82.17030218	     -4.96887450	     -9.69333459	     84.17825844	      1.46918777	     27.76382090	      0.00000000	      0.00000000	    -48.67436697	     -7.97811987	     -8.21224414	     58.49191980	    -12.31376078	     45.68072243	      8.99529173	     11.75610809	      0.00000000	      0.00000000	     66.75167407	    -18.07218417	     44.67081645	     15.03918661	     84.76863034	      0.00000000	      0.00000000
     17.10500000	     22.63028726	    -11.31306199	    178.48366608	      0.37383470	      0.67599036	     -0.60134683	     90.10282421	     -9.74701370	     11.19303503	     88.38637959	      1.54263334	     24.81653408	      0.00000000	      0.00000000	     82.13735237	     -5.02623168	     -9.67542697	     84.18722300	      1.46934423	     27.77441724	      0.00000000	      0.00000000	    -48.68842437	     -8.08818205	     -8.17416036	     58.52029706	    -12.31313952	     45.68344315	      9.00157218	     11.75536617	      0.00000000	      0.00000000	     66.72166777	    -18.08279145	     44.67086274	     15.02903022	     84.76779442	      0.00000000	      0.00000000
     17.11000000	     22.86059090	    -11.31964491	    178.77207429	      0.37370412	      0.67619777	     -0.60057529	     90.25987326	    -10.01612563	     11.23579839	     88.30259837	      1.54117108	     24.88369454	      0.00000000	      0.00000000	     82.29516591	     -4.78107889	     -9.74667763	     84.01113364	      1.46627089	     27.70971961	      0.00000000	      0.00000000	    -48.53760290	     -7.87260661	     -8.32553262	     58.47703891	    -12.36132085	     45.67911599	      9.04264894	     11.66324941	      0.00000000	      0.00000000	     66.74089046	    -18.01714260	     44.71777681	     15.00654807	     84.69408049	      0.00000000	      0.00000000
     17.11500000	     22.86109676	    -11.36838742	    178.61007772	      0.37324518	      0.67637895	     -0.60086963	     90.24162207	     -9.91584350	     11.20535439	     88.28235091	      1.54081769	     24.87013780	      0.00000000	      0.00000000	     82.24923927	     -4.86799891	     -9.71690421	     84.03303500	      1.46665314	     27.73059607	      0.00000000	      0.00000000	    -48.55688752	     -8.03350320	     -8.26417780	     58.51308201	    -12.35845453	     45.68273427	      9.05033364	     11.66261065	      0.00000000	      0.00000000	     66.70550108	    -18.03675372	     44.71644672	     14.99316254	     84.69352417	      0.00000000	      0.00000000
     17.12000000	     22.90144160	    -11.32992352	    178.60321276	      0.37295514	      0.67656079	     -0.60092427	     90.20082506	     -9.81399211	     11.26313771	     88.24789203	      1.54021627	     24.87539064	      0.00000000	      0.00000000	     82.23773758	     -4.96390551	     -9.78099592	     84.01649671	      1.46636449	     27.78168584	      0.00000000	      0.00000000	    -48.56171975	     -8.01757289	     -8.23352349	     58.47019846	    -12.34858092	     45.68322616	      9.04307427	     11.65467570	      0.00000000	      0.00000000	     66.76024265	    -18.03355473	     44.71430627	     15.01140263	     84.68764810	      0.00000000	      0.00000000
     17.12500000	     22.91183005	    -11.36824648	    178.48927312	      0.37254940	      0.67670224	     -0.60110723	     90.19218954	     -9.75358830	     11.23809929	     88.23085452	      1.53991891	     24.87204800	      0.00000000	      0.00000000	     82.20545083	     -5.02098380	     -9.76277480	     84.02731930	      1.46655338	     27.79529343	      0.00000000	      0.00000000	    -48.57737021	     -8.13110148	     -8.18626333	     58.49716294	    -12.34839069	     45.68563614	      9.04839614	     11.65395859	      0.00000000	      0.00000000	     66.73011936	    -18.04583746	     44.71415769	     15.00099603	     84.68718926	      0.00000000	      0.00000000
     17.13000000	     22.93230809	    -11.38056771	    178.42366795	      0.37216624	      0.67686889	     -0.60117260	     90.17774246	     -9.70699169	     11.23063967	     88.21422666	      1.53962870	     24.87156687	      0.00000000	      0.00000000	     82.18322504	     -5.06588065	     -9.76036934	     84.03128710	      1.46662263	     27.81065439	      0.00000000	      0.00000000	    -48.58654318	     -8.20192700	     -8.16026756	     58.50443376	    -12.35057007	     45.68668739	      9.04814510	     11.65251928	      0.00000000	      0.00000000	     66.72049166	    -18.04949457	     44.71372478	     15.00011908	     84.68643388	      0.00000000	      0.00000000
     17.13500000	     23.16133311	    -11.38299133	    178.76005851	      0.37210718	      0.67697624	     -0.60028785	     90.34983644	    -10.02021886	     11.28722717	     88.15167125	      1.53853690	     24.94730859	      0.00000000	      0.00000000	     82.34984111	     -4.77922398	     -9.83975022	     83.85418866	      1.46353168	     27.79806096	      0.00000000	      0.00000000	    -48.43341401	     -7.95296750	     -8.25890808	     58.45116319	    -12.49491099	     45.62975239	      9.06408075	     11.56100109	      0.00000000	      0.00000000	     66.75516737	    -17.92148240	     44.76729566	     15.04046946	     84.63900030	      0.00000000	      0.00000000
